P2
91 149 
255 0 0 0 0 0 0 0 0 0 0 0 0 0 0 0 0 0 0 0 0 0 0 0 0 0 0 0 0 0 0 0 0 0 0 0 0 0 0 0 0 0 0 0 0 0 0 0 0 0 0 0 51 0 43 51 153 0 0 0 0 0 0 0 0 0 0 0 0 0 0 0 0 0 0 0 0 0 0 0 0 0 0 0 0 0 0 0 0 0 0 0 0 0 0 0 0 0 0 0 0 0 0 0 0 0 0 0 0 0 0 0 0 0 0 0 0 0 0 0 0 0 0 0 0 0 0 0 0 0 0 0 0 0 0 0 0 0 2 8 28 62 76 104 126 128 129 84 43 10 3 1 0 0 0 0 0 0 0 0 0 0 0 0 0 0 0 0 0 0 0 0 0 0 0 0 0 0 0 0 0 0 0 0 0 0 0 0 0 0 0 0 0 0 0 0 0 0 0 0 0 0 0 0 0 0 0 0 0 0 0 0 0 0 0 0 0 0 0 0 0 0 0 0 0 0 0 0 25 35 36 78 112 154 170 178 180 168 132 64 20 7 2 0 0 0 0 0 1 1 1 1 1 2 2 1 0 0 0 0 0 0 0 0 0 0 0 0 0 0 0 0 0 0 0 0 0 0 0 0 0 0 0 0 0 0 0 0 0 0 0 0 0 0 0 0 0 0 0 0 0 0 0 0 0 0 0 0 0 0 0 0 0 0 0 0 0 0 0 33 85 82 133 172 185 193 197 198 196 154 91 41 12 3 1 0 0 0 10 18 14 14 18 24 20 11 6 3 1 0 0 0 0 0 0 0 0 0 0 0 0 0 0 0 0 0 0 0 0 0 0 0 0 0 0 0 0 0 0 0 0 0 0 0 0 0 0 0 0 0 0 0 0 0 0 0 0 0 0 0 0 0 0 0 0 0 0 0 0 10 57 80 135 175 190 197 200 202 203 203 157 87 60 16 6 3 3 2 6 25 58 65 70 79 88 89 54 27 10 4 1 0 0 0 0 0 0 0 0 0 0 0 0 0 0 0 0 0 0 0 0 0 0 0 0 0 0 0 0 0 0 0 0 0 0 0 0 0 0 0 0 0 0 0 0 0 0 0 0 0 0 0 0 0 0 0 0 0 0 0 18 76 126 173 190 198 201 203 203 204 197 140 83 49 36 29 35 26 15 30 73 101 128 150 156 163 155 132 72 28 9 3 0 0 0 0 0 0 0 0 0 0 0 0 0 0 0 0 0 0 0 0 0 0 0 0 0 0 0 0 0 0 0 0 0 0 0 0 0 0 0 0 0 0 0 0 0 0 0 0 0 0 0 0 0 0 0 0 0 0 9 47 103 168 187 197 201 203 204 204 204 186 116 80 97 87 72 74 60 32 73 121 158 178 187 191 193 194 172 122 57 17 5 1 0 0 0 0 0 0 0 0 0 0 0 0 0 0 0 0 0 0 0 0 0 0 0 0 0 0 0 0 0 0 0 0 0 0 0 0 0 0 0 0 0 0 0 0 0 0 0 0 0 0 0 0 0 0 0 0 0 17 79 147 181 195 200 203 204 204 204 204 163 99 117 152 143 135 125 85 67 84 132 164 185 194 199 200 201 194 158 83 25 7 2 0 0 0 0 0 0 0 0 0 0 0 0 0 0 0 0 0 0 0 0 0 0 0 0 0 0 0 0 0 0 0 0 0 0 0 0 0 0 0 0 0 0 0 0 0 0 0 0 0 0 0 0 0 0 0 0 0 29 99 167 190 199 202 203 204 204 204 192 138 98 153 178 182 177 170 153 131 114 98 125 166 188 196 200 202 202 169 94 28 8 2 0 0 0 0 0 0 0 0 0 0 0 0 0 0 0 0 0 0 0 0 0 0 0 0 0 0 0 0 0 0 0 0 0 0 0 0 0 0 0 0 0 0 0 0 0 0 0 0 0 0 0 0 0 0 0 0 9 46 122 175 194 200 203 204 204 204 197 161 102 128 177 192 198 198 197 188 176 157 139 115 114 157 182 195 200 202 166 82 27 8 2 0 0 0 0 0 0 0 0 0 0 0 0 0 0 0 0 0 0 0 0 0 0 0 0 0 0 0 0 0 0 0 0 0 0 0 0 0 0 0 0 0 0 0 0 0 0 0 0 0 0 0 0 0 0 0 5 20 73 136 180 196 201 203 204 204 200 171 119 106 163 188 198 201 203 203 202 200 189 175 156 120 100 145 181 195 191 152 73 24 7 2 0 0 0 0 0 0 0 0 0 0 0 0 0 0 0 0 0 0 0 0 0 0 0 0 0 0 0 0 0 0 0 0 0 0 0 0 0 0 0 0 0 0 0 0 0 0 0 0 0 0 0 0 0 0 4 26 63 87 146 183 197 202 203 204 204 183 140 108 154 183 195 201 203 204 204 204 204 202 200 182 157 121 102 152 185 168 109 67 19 6 1 0 0 0 0 0 0 0 0 0 0 0 0 0 0 0 0 0 0 0 0 0 0 0 0 0 0 0 0 0 0 0 0 0 0 0 0 0 0 0 0 0 0 0 0 0 0 0 0 0 0 0 0 0 6 26 75 109 124 147 184 196 201 203 204 195 164 125 160 183 194 200 202 203 204 204 204 204 204 204 202 186 158 118 110 152 140 88 33 14 4 1 0 0 0 0 0 0 0 0 0 0 0 0 0 0 0 0 0 0 0 0 0 0 0 0 0 0 0 0 0 0 0 0 0 0 0 0 0 0 0 0 0 0 0 0 0 0 0 0 0 0 0 0 9 28 72 133 161 135 134 173 193 201 203 204 192 154 167 187 195 200 202 203 204 204 204 204 204 204 204 204 202 186 147 99 107 106 73 22 8 3 1 0 0 0 0 0 0 0 0 0 0 0 0 0 0 0 0 0 0 0 0 0 0 0 0 0 0 0 0 0 0 0 0 0 0 0 0 0 0 0 0 0 0 0 0 0 0 0 0 0 0 0 0 17 71 124 173 181 160 130 152 191 200 203 204 192 186 193 197 201 202 203 204 204 204 204 204 204 204 204 204 204 202 171 125 91 95 35 17 6 2 0 0 0 0 0 0 0 0 0 0 0 0 0 0 0 0 0 0 0 0 0 0 0 0 0 0 0 0 0 0 0 0 0 0 0 0 0 0 0 0 0 0 0 0 0 0 0 0 0 0 0 0 5 41 102 167 187 196 177 158 163 192 201 203 204 201 201 201 202 203 204 204 204 204 204 204 204 204 204 204 204 204 204 194 160 122 80 46 17 6 2 0 0 0 0 0 0 0 0 0 0 0 0 0 0 0 0 0 0 0 0 0 0 0 0 0 0 0 0 0 0 0 0 0 0 0 0 0 0 0 0 0 0 0 0 0 0 0 0 0 0 0 15 30 73 147 181 195 200 195 185 193 197 202 203 204 204 204 204 204 204 204 204 204 204 204 204 204 204 204 204 204 204 204 203 188 156 99 72 21 8 3 0 0 0 0 0 0 0 0 0 0 0 0 0 0 0 0 0 0 0 0 0 0 0 0 0 0 0 0 0 0 0 0 0 0 0 0 0 0 0 0 0 0 0 0 0 0 0 0 0 0 0 21 71 111 171 191 199 202 203 201 201 202 203 204 204 204 204 204 204 204 204 204 204 204 204 204 204 204 204 204 204 204 204 204 202 178 149 83 42 14 4 1 0 0 0 0 0 0 0 0 0 0 0 0 0 0 0 0 0 0 0 0 0 0 0 0 0 0 0 0 0 0 0 0 0 0 0 0 0 0 0 0 0 0 0 0 0 0 0 0 0 0 30 76 149 183 196 201 203 204 204 204 204 204 204 204 204 204 204 204 204 204 204 204 204 204 204 204 204 204 204 204 204 204 204 204 197 172 126 72 22 8 2 0 0 0 0 0 0 0 0 0 0 0 0 0 0 0 0 0 0 0 0 0 0 0 0 0 0 0 0 0 0 0 0 0 0 0 0 0 0 0 0 0 0 0 0 0 0 0 0 0 10 41 106 170 191 199 202 203 204 204 204 204 204 204 204 204 204 204 204 204 204 204 204 204 204 204 204 204 204 204 204 204 204 204 204 203 193 165 93 42 16 6 2 0 0 0 0 0 0 0 0 0 0 0 0 0 0 0 0 0 0 0 0 0 0 0 0 0 0 0 0 0 0 0 0 0 0 0 0 0 0 0 0 0 0 0 0 0 0 0 0 20 81 142 181 196 201 203 204 204 204 204 204 204 204 204 204 204 204 204 204 204 204 204 204 204 204 204 204 204 204 204 204 204 204 204 204 203 181 142 93 41 15 6 2 0 0 0 0 0 0 0 0 0 0 0 0 0 0 0 0 0 0 0 0 0 0 0 0 0 0 0 0 0 0 0 0 0 0 0 0 0 0 0 0 0 0 0 0 0 0 0 31 99 166 189 199 202 203 204 204 204 204 204 204 204 204 204 204 204 204 204 204 204 204 204 204 204 204 204 204 204 204 204 204 204 204 204 204 197 179 140 96 40 15 6 2 0 0 0 0 0 0 0 0 0 0 0 0 0 0 0 0 0 0 0 0 0 0 0 0 0 0 0 0 0 0 0 0 0 0 0 0 0 0 0 0 0 0 0 0 0 0 37 116 174 194 200 203 204 204 204 204 204 204 204 204 204 204 204 204 204 204 204 204 204 204 204 204 204 204 204 204 204 204 204 204 204 204 204 203 197 180 131 91 39 14 5 2 0 0 0 0 0 0 0 0 0 0 0 0 0 0 0 0 0 0 0 0 0 0 0 0 0 0 0 0 0 0 0 0 0 0 0 0 0 0 0 0 0 0 0 0 15 62 137 181 196 201 203 204 204 204 204 204 204 204 204 204 204 204 204 204 204 204 204 204 204 204 204 204 204 204 204 204 204 204 204 204 204 204 204 203 194 175 125 89 36 14 5 2 0 0 0 0 0 0 0 0 0 0 0 0 0 0 0 0 0 0 0 0 0 0 0 0 0 0 0 0 0 0 0 0 0 0 0 0 0 0 0 0 0 0 0 31 110 157 188 198 202 203 204 204 204 204 204 204 204 204 204 204 204 204 204 204 204 204 204 204 204 204 204 204 204 204 204 204 204 204 204 204 204 204 204 203 191 175 124 86 36 13 5 1 0 0 0 0 0 0 0 0 0 0 0 0 0 0 0 0 0 0 0 0 0 0 0 0 0 0 0 0 0 0 0 0 0 0 0 0 0 0 0 0 0 0 46 123 175 193 200 203 204 204 204 204 204 204 204 204 204 204 204 204 204 204 204 204 204 204 204 204 204 204 204 204 204 204 203 200 199 200 202 204 204 204 204 203 190 175 122 82 37 12 3 0 0 0 0 0 0 0 0 0 0 0 0 0 0 0 0 0 0 0 0 0 0 0 0 0 0 0 0 0 0 0 0 0 0 0 0 0 0 0 0 0 0 49 132 180 196 201 203 204 204 204 204 204 204 204 204 204 204 204 204 204 204 204 204 204 204 204 204 204 204 204 204 204 189 166 158 171 190 200 203 204 204 204 204 203 193 157 94 67 17 5 1 0 0 0 0 0 0 0 0 0 0 0 0 0 0 0 0 0 0 0 0 0 0 0 0 0 0 0 0 0 0 0 0 0 0 0 0 0 0 0 0 0 56 145 184 197 202 203 204 204 204 204 204 204 204 204 204 204 204 204 204 204 204 204 204 204 204 204 204 204 204 204 194 169 131 121 143 181 199 203 204 204 204 204 204 203 162 117 58 20 5 1 0 0 0 0 0 0 0 0 0 0 0 0 0 0 0 0 0 0 0 0 0 0 0 0 0 0 0 0 0 0 0 0 0 0 0 0 0 1 1 1 12 78 162 189 199 202 204 204 204 204 204 204 204 204 204 204 204 204 204 204 204 204 204 204 204 204 204 204 204 204 199 183 150 149 152 168 191 199 203 204 204 204 204 204 204 160 97 59 16 5 1 0 0 0 0 0 0 0 0 0 0 0 0 0 0 0 0 0 0 0 0 0 0 0 0 0 0 0 0 0 0 0 0 0 0 0 4 11 11 13 21 41 117 173 193 200 203 204 204 204 204 204 204 204 204 204 204 204 204 204 204 204 204 204 204 204 204 204 204 204 204 199 177 178 186 186 193 198 202 203 204 204 204 204 204 192 147 81 29 12 4 1 0 0 0 0 0 0 0 0 0 0 0 0 0 0 0 0 0 0 0 0 0 0 0 0 0 0 0 0 0 0 0 0 0 0 7 19 33 36 33 47 87 145 183 197 201 203 204 204 204 204 204 204 204 204 204 204 204 204 204 204 204 204 204 204 204 204 204 204 204 204 199 196 198 199 200 201 202 203 204 204 204 204 204 196 172 107 61 19 7 2 0 0 0 0 0 0 0 0 0 0 0 0 0 0 0 0 0 0 0 0 0 0 0 0 0 0 0 0 0 0 0 0 0 0 0 12 42 53 54 54 65 113 172 191 199 202 203 204 204 204 204 204 204 204 204 204 204 204 204 204 204 204 204 204 204 204 204 204 204 204 204 204 203 203 203 201 199 200 202 203 204 204 204 195 164 113 79 27 12 4 1 0 0 0 0 0 0 0 0 0 0 0 0 0 0 0 0 0 0 0 0 0 0 0 0 0 0 0 0 0 0 0 0 0 0 0 16 43 59 60 60 87 154 184 197 201 203 204 204 204 204 204 204 204 204 204 204 204 204 204 204 204 204 204 204 204 204 204 204 204 204 204 204 204 202 186 166 173 192 200 203 204 204 202 183 118 62 30 15 6 2 0 0 0 0 0 0 0 0 0 0 0 0 0 0 0 0 0 0 0 0 0 0 0 0 0 0 0 0 0 0 0 0 0 0 0 0 13 38 58 64 77 134 177 193 200 203 204 204 204 204 204 204 204 204 204 204 204 204 204 204 204 204 204 204 204 204 204 204 204 204 204 204 204 204 185 141 100 124 183 198 202 204 204 202 169 111 54 23 10 4 1 0 0 0 0 0 0 0 0 0 0 0 0 0 0 0 0 0 0 0 0 0 0 0 0 0 0 0 0 0 0 0 0 0 0 0 0 15 40 55 77 122 172 189 198 202 203 204 204 204 204 204 204 204 204 204 204 204 204 204 204 204 204 204 204 204 204 204 204 204 204 204 204 204 193 150 74 58 119 179 197 202 204 204 202 181 128 92 39 17 7 3 1 0 0 0 0 0 0 0 0 0 0 0 0 0 0 0 0 0 0 0 0 0 0 0 0 0 0 0 0 0 0 0 0 0 0 0 22 52 57 94 161 184 196 201 203 204 204 204 204 204 204 204 204 204 204 204 204 204 204 204 204 204 204 204 204 204 204 204 204 204 204 204 204 188 119 69 80 143 184 198 202 204 204 204 191 176 131 99 47 19 9 4 1 0 0 0 0 0 0 0 0 0 0 0 0 0 0 0 0 0 0 0 0 0 0 0 0 0 0 0 0 0 0 0 0 0 0 26 59 60 94 156 185 197 201 203 204 204 204 204 204 204 204 204 204 204 204 204 204 204 204 204 204 204 204 204 204 204 204 204 204 204 204 204 187 151 121 139 177 192 200 203 204 204 204 203 191 182 159 123 65 33 13 6 3 1 0 0 0 0 0 0 0 0 0 0 0 0 0 0 0 0 0 0 0 0 0 0 0 0 0 0 0 0 0 0 0 0 30 59 61 78 127 177 194 200 203 204 204 204 204 204 204 204 204 204 204 204 204 204 204 204 204 204 204 204 204 204 204 204 204 204 204 204 204 198 185 179 186 193 199 202 203 204 204 204 204 203 201 193 170 147 86 46 30 10 2 0 0 0 0 0 0 0 0 0 0 0 0 0 0 0 0 0 0 0 0 0 0 0 0 0 0 0 0 0 0 0 0 27 63 62 71 97 154 186 197 201 203 204 204 204 204 204 204 204 204 204 204 204 204 204 204 204 204 204 204 204 204 204 204 204 204 204 204 204 204 202 200 199 201 202 203 204 204 204 204 204 204 204 203 200 182 140 85 62 15 5 1 0 0 0 0 0 0 0 0 0 0 0 0 0 0 0 0 0 0 0 0 0 0 0 0 0 0 0 0 0 0 0 30 60 66 66 82 109 165 189 198 202 203 204 204 204 204 204 204 204 204 204 204 204 204 204 204 204 204 204 204 204 204 204 204 204 204 204 204 204 204 204 203 203 204 204 204 204 204 204 204 204 204 204 191 170 136 110 52 23 7 2 0 0 0 0 0 0 0 0 0 0 0 0 0 0 0 0 0 0 0 0 0 0 0 0 0 0 0 0 0 0 0 27 63 66 68 68 85 117 167 190 199 202 203 204 204 204 204 204 204 204 204 204 204 204 204 204 204 204 204 204 204 204 204 204 204 204 204 204 204 204 204 204 204 204 204 204 204 204 204 204 204 204 192 155 106 83 64 42 27 8 4 1 0 0 0 0 0 0 0 0 0 0 0 0 0 0 0 0 0 0 0 0 0 0 0 0 0 0 0 0 0 0 27 56 66 68 67 71 86 122 172 192 199 202 203 204 204 204 204 204 204 204 204 204 204 204 204 204 204 204 204 204 204 204 204 204 204 204 204 204 204 204 204 204 204 204 204 204 204 204 204 204 204 176 99 49 36 24 20 24 23 7 1 0 0 0 0 0 0 0 0 0 0 0 0 0 0 0 0 0 0 0 0 0 0 0 0 0 0 0 0 0 0 24 55 65 68 69 68 72 88 131 176 193 200 202 203 204 204 204 204 204 204 204 204 204 204 204 204 204 204 204 204 204 204 204 204 204 204 203 203 203 203 204 204 204 204 204 204 204 204 204 204 204 159 74 29 14 8 5 20 39 7 2 0 0 0 0 0 0 0 0 0 0 0 0 0 0 0 0 0 0 0 0 0 0 0 0 0 0 0 0 0 7 32 58 66 68 72 72 69 73 86 139 178 194 200 203 204 204 204 204 204 204 204 204 204 204 204 204 204 204 204 204 204 204 204 204 204 197 192 194 198 201 203 204 204 204 204 204 204 204 204 204 204 158 75 27 10 4 2 19 9 6 1 0 0 0 0 0 0 0 0 0 0 0 0 0 0 0 0 0 0 0 0 0 0 0 0 0 0 0 0 11 27 52 63 70 72 73 76 71 65 75 91 146 182 195 201 203 204 204 204 204 204 204 204 204 204 204 204 204 204 204 204 204 204 204 199 181 154 136 156 183 197 202 203 204 204 204 204 204 204 204 204 204 168 92 31 11 4 11 14 6 2 1 0 0 0 0 0 0 0 0 0 0 0 0 0 0 0 0 0 0 0 0 0 0 0 0 0 0 0 0 16 54 60 66 72 75 73 72 72 69 64 74 98 153 185 197 201 203 204 204 204 204 204 204 204 204 204 204 204 204 204 204 204 204 199 182 150 99 73 104 166 192 200 203 204 204 204 204 204 204 204 204 204 184 124 50 19 7 14 25 5 1 0 0 0 0 0 0 0 0 0 0 0 0 0 0 0 0 0 0 0 0 0 0 0 0 0 0 0 0 6 31 49 64 68 71 70 70 71 70 70 67 66 76 99 159 187 197 201 203 204 204 204 204 204 204 204 204 204 204 204 204 204 204 204 194 170 141 99 46 77 151 184 197 202 203 204 204 204 204 204 204 204 204 197 162 101 43 27 28 10 4 1 0 0 0 0 0 0 0 0 0 0 0 0 0 0 0 0 0 0 0 0 0 0 0 0 0 0 0 0 13 43 59 65 68 69 70 70 70 70 72 72 68 65 80 103 160 187 197 201 203 204 204 204 204 204 204 204 204 204 204 204 204 204 204 194 179 176 115 39 49 106 168 191 200 203 204 204 204 204 204 204 204 204 203 188 149 83 42 34 8 2 0 0 0 0 0 0 0 0 0 0 0 0 0 0 0 0 0 0 0 0 0 0 0 0 0 0 0 0 0 19 49 61 66 68 72 73 71 70 70 72 76 71 67 68 83 102 159 185 196 201 203 204 204 204 204 204 204 204 204 204 204 204 204 204 199 200 186 112 38 26 61 135 181 196 201 203 204 204 204 204 204 204 204 204 194 153 89 47 14 6 1 0 0 0 0 0 0 0 0 0 0 0 0 0 0 0 0 0 0 0 0 0 0 0 0 0 0 0 0 0 20 48 63 68 69 73 77 71 70 70 73 72 72 70 69 66 80 103 153 181 195 200 203 204 204 204 204 204 204 204 204 204 204 204 204 204 203 191 118 42 16 33 86 158 187 197 202 203 204 204 204 204 204 203 192 171 119 58 22 9 3 1 0 0 0 0 0 0 0 0 0 0 0 0 0 0 0 0 0 0 0 0 0 0 0 0 0 0 0 0 10 32 53 64 68 71 73 71 71 70 73 75 72 70 70 69 67 67 81 98 142 179 194 200 202 203 204 204 204 204 204 204 204 204 204 204 204 204 196 140 56 19 14 45 105 164 189 199 202 203 204 203 202 194 181 168 123 73 28 12 4 1 0 0 0 0 0 0 0 0 0 0 0 0 0 0 0 0 0 0 0 0 0 0 0 0 0 0 0 0 0 18 54 60 66 69 72 73 71 70 70 73 76 71 70 70 72 72 68 69 77 88 139 176 192 199 202 203 204 204 204 204 204 204 204 204 204 204 204 203 158 80 26 9 19 54 119 175 194 199 199 194 184 171 161 132 100 83 30 14 6 2 0 0 0 0 0 0 0 0 0 0 0 0 0 0 0 0 0 0 0 0 0 0 0 0 0 0 0 0 0 0 23 50 63 69 71 73 76 71 71 70 73 71 70 72 73 74 77 71 69 65 77 88 129 169 190 198 202 203 204 204 204 204 204 204 204 204 204 204 204 179 113 40 14 6 35 100 149 169 179 181 173 142 104 87 76 48 24 14 6 2 1 0 0 0 0 0 0 0 0 0 0 0 0 0 0 0 0 0 0 0 0 0 0 0 0 0 0 0 0 0 10 32 50 64 70 75 73 71 71 72 72 73 71 70 73 76 74 73 71 70 69 66 75 83 117 167 190 198 202 203 204 204 204 204 204 204 204 204 204 204 195 145 66 21 7 36 102 122 105 116 118 113 87 42 37 21 15 9 5 2 1 0 0 0 0 0 0 0 0 0 0 0 0 0 0 0 0 0 0 0 0 0 0 0 0 0 0 0 0 0 0 16 51 60 65 71 71 71 70 71 70 73 76 72 70 73 72 72 70 70 72 72 70 66 70 82 118 167 189 198 201 203 204 204 204 204 204 204 204 204 204 203 170 99 34 18 57 109 81 52 46 45 44 25 16 10 7 4 3 2 1 0 0 0 0 0 0 0 0 0 0 0 0 0 0 0 0 0 0 0 0 0 0 0 0 0 0 0 0 0 0 15 38 48 63 67 69 71 70 72 73 71 73 72 72 70 71 70 70 70 70 73 76 71 69 66 71 84 114 162 186 196 200 203 204 204 204 204 204 204 204 204 204 190 139 67 51 85 109 73 29 17 14 14 11 8 6 5 4 5 4 2 0 0 0 0 0 0 0 0 0 0 0 0 0 0 0 0 0 0 0 0 0 0 0 0 0 0 0 0 0 0 24 63 55 65 68 70 70 70 72 76 71 70 71 70 70 70 70 70 70 70 74 73 71 70 69 68 70 79 103 148 178 193 199 202 203 204 204 204 204 204 204 204 200 167 127 107 115 99 90 49 41 38 36 35 31 29 33 39 30 13 6 5 3 1 0 0 0 0 0 0 0 0 0 0 0 0 0 0 0 0 0 0 0 0 0 0 0 0 0 0 15 49 56 65 67 71 72 70 70 73 71 70 71 73 73 70 72 73 70 70 74 74 71 70 72 72 70 66 68 78 91 130 170 190 198 202 203 204 204 204 204 203 191 170 146 125 127 120 127 116 111 108 108 104 103 99 94 102 106 92 48 43 31 12 5 2 0 0 0 0 0 0 0 0 0 0 0 0 0 0 0 0 0 0 0 0 0 0 0 0 0 23 68 64 67 68 72 76 71 70 72 70 72 73 75 76 71 73 76 71 70 72 76 71 68 68 72 69 68 66 66 75 81 113 163 188 197 201 203 204 204 197 182 157 117 94 82 83 116 159 169 170 172 170 169 169 165 167 168 170 140 119 106 88 35 14 7 3 1 0 0 0 0 0 0 0 0 0 0 0 0 0 0 0 0 0 0 0 0 0 9 16 40 56 67 69 70 73 72 70 71 70 70 72 76 74 71 70 73 72 70 70 72 71 70 68 64 60 61 63 66 67 65 67 73 103 153 179 193 199 202 203 196 172 137 97 67 67 69 112 172 190 195 196 197 196 196 196 196 196 192 184 176 171 133 96 50 25 11 4 1 0 0 0 0 0 0 0 0 0 0 0 0 0 0 0 0 0 0 0 0 13 40 50 62 66 70 71 71 70 72 73 71 70 72 71 71 70 70 71 70 70 70 70 70 70 68 65 60 52 51 59 64 67 63 65 76 93 131 170 190 197 201 195 185 175 125 68 67 65 105 174 194 200 202 202 202 202 202 202 202 202 201 199 191 181 156 120 75 33 13 5 1 0 0 0 0 0 0 0 0 0 0 0 0 0 0 0 0 0 0 0 17 39 59 64 70 72 70 70 70 72 76 72 71 70 70 71 71 70 70 72 73 71 71 70 72 73 69 65 59 52 50 56 64 67 64 66 75 85 112 154 181 194 198 199 191 130 72 66 66 124 176 195 201 203 204 204 204 204 204 204 204 204 203 202 200 190 171 133 85 35 13 5 0 0 0 0 0 0 0 0 0 0 0 0 0 0 0 0 0 0 0 24 48 56 64 70 75 70 70 70 73 72 72 72 70 70 70 74 73 70 73 76 72 72 70 72 76 72 69 64 61 56 54 58 64 67 68 66 72 80 90 132 164 184 195 183 118 75 63 73 132 178 195 201 203 204 204 204 204 204 204 204 204 204 204 204 202 195 177 133 85 35 13 0 0 0 0 0 0 0 0 0 0 0 0 0 0 0 0 0 0 0 21 52 41 59 69 70 71 70 72 74 73 71 73 73 70 70 72 76 70 73 72 71 70 70 72 71 70 70 69 66 64 62 57 58 66 71 72 68 65 77 83 103 139 167 158 103 76 58 65 125 178 195 201 203 203 204 204 204 204 204 204 204 204 204 204 204 203 195 175 121 79 36 0 0 0 0 0 0 0 0 0 0 0 0 0 0 0 0 0 0 0 17 13 33 52 65 69 73 73 73 77 71 70 72 76 70 70 72 70 70 71 70 72 73 70 70 70 70 70 72 73 70 67 60 55 63 69 74 69 68 66 69 76 85 105 106 83 74 52 49 115 175 195 196 197 201 202 203 204 204 204 204 204 204 204 204 204 204 198 186 149 87 65 0 0 0 0 0 0 0 0 0 0 0 0 0 0 0 0 0 0 0 11 34 45 51 61 67 72 75 73 71 71 70 72 70 71 70 68 67 69 70 70 72 76 71 70 72 73 71 73 76 72 70 61 57 59 64 61 67 68 69 67 66 70 69 55 60 69 50 44 105 172 194 194 179 188 197 201 203 204 204 204 204 204 204 204 204 197 174 158 129 99 64 0 0 0 0 0 0 0 0 0 0 0 0 0 0 0 0 0 0 0 22 78 101 66 56 66 71 70 70 71 69 68 69 69 70 72 64 60 68 70 70 72 71 72 70 72 76 72 73 72 71 70 65 54 55 55 54 65 68 69 69 69 65 62 59 55 67 55 49 100 170 193 193 175 157 183 195 201 203 204 204 204 204 204 204 197 172 142 141 127 108 98 68 0 0 0 0 0 0 0 0 0 0 0 0 0 0 0 0 0 0 40 116 144 110 64 65 68 70 70 71 70 64 66 71 73 67 58 56 66 71 72 70 71 70 70 72 71 70 70 70 70 70 67 56 48 50 51 63 71 72 68 68 72 72 64 68 68 62 53 99 167 191 197 167 130 147 184 195 199 201 201 201 202 202 198 175 138 131 166 164 161 131 86 0 0 0 0 0 0 0 0 0 0 0 0 0 0 0 0 0 11 67 148 174 154 105 66 70 70 71 71 68 65 62 70 75 63 49 57 65 71 75 70 70 70 70 70 70 70 70 72 73 70 69 59 50 42 49 62 67 74 74 78 84 88 82 73 70 68 58 92 158 187 196 162 112 106 148 167 177 180 179 185 189 186 176 142 124 167 188 186 168 119 102 0 0 0 0 0 0 0 0 0 0 0 0 0 0 0 0 0 34 118 172 190 184 148 89 72 71 70 72 72 64 60 67 69 60 50 57 65 71 70 71 73 73 70 70 71 73 73 74 76 71 70 65 54 33 45 57 64 71 90 103 108 102 106 93 81 73 53 75 132 163 169 140 107 124 127 149 163 170 155 144 158 167 163 141 153 186 196 180 131 80 0 0 0 0 0 0 0 0 0 0 0 0 0 0 0 0 0 14 75 158 185 197 200 175 133 77 72 71 73 76 66 60 61 67 57 51 58 66 69 70 71 74 76 71 73 74 73 77 75 71 70 70 70 55 33 35 49 59 92 111 119 118 122 118 113 108 93 62 57 86 123 121 101 111 141 156 169 182 184 172 146 139 168 180 179 190 195 196 169 100 39 0 0 0 0 0 0 0 0 0 0 0 0 0 0 0 0 0 38 131 175 193 200 202 196 165 119 78 73 73 71 68 63 61 67 57 46 60 66 69 71 71 73 71 70 73 76 73 72 71 70 70 71 71 59 38 30 41 70 106 119 124 126 122 117 118 117 110 95 77 70 86 89 59 98 122 161 177 189 195 185 173 177 190 196 198 199 201 187 137 82 26 0 0 0 0 0 0 0 0 0 0 0 0 0 0 0 0 16 81 161 187 197 202 203 203 190 162 112 77 71 71 70 65 64 67 53 48 57 66 71 72 70 70 70 70 72 71 71 70 70 72 73 71 70 65 42 30 42 73 108 121 125 127 123 106 94 106 117 112 104 99 96 69 61 73 94 113 134 168 187 193 191 194 197 200 202 202 191 167 113 40 17 0 0 0 0 0 0 0 0 0 0 0 0 0 0 0 0 39 136 177 194 200 203 204 204 203 187 160 107 75 71 70 68 65 64 50 40 58 65 71 75 70 70 70 71 71 70 70 70 70 73 76 71 70 67 52 39 37 66 107 120 125 127 123 114 88 72 99 113 118 114 112 93 79 87 109 67 70 110 141 156 171 185 194 197 199 194 167 116 77 25 9 0 0 0 0 0 0 0 0 0 0 0 0 0 0 0 16 82 162 188 198 202 203 204 204 204 202 184 160 112 77 73 71 64 57 43 34 52 64 70 70 71 73 73 71 72 70 70 70 70 74 71 70 70 70 60 49 35 53 97 118 124 127 127 119 104 89 68 86 107 118 119 114 112 113 82 74 47 54 89 103 113 134 156 168 173 166 119 76 29 14 5 0 0 0 0 0 0 0 0 0 0 0 0 0 0 0 39 136 177 194 200 203 204 204 204 204 204 202 186 160 114 79 70 63 56 33 31 53 64 69 70 71 74 76 71 70 72 73 70 70 69 70 73 74 71 67 54 42 60 82 112 123 126 127 127 120 105 92 71 76 99 115 121 121 115 113 83 63 49 56 78 62 78 108 124 136 117 73 29 14 6 2 0 0 0 0 0 0 0 0 0 0 0 0 0 0 16 82 162 188 198 202 203 204 204 204 204 204 204 202 187 162 117 82 67 56 28 32 57 65 69 71 71 73 71 70 70 73 74 67 63 67 72 78 78 68 68 56 48 77 95 104 121 125 127 128 127 121 109 101 87 76 92 107 117 122 117 112 92 78 83 45 27 42 78 78 89 77 28 14 6 2 1 0 0 0 0 0 0 0 0 0 0 0 0 0 0 39 136 177 194 200 203 204 204 204 204 204 204 204 204 202 187 166 135 102 69 40 38 59 66 71 72 70 70 70 70 68 67 69 75 85 95 110 114 110 91 81 59 57 75 101 106 114 121 125 127 127 127 125 116 107 104 86 82 94 112 121 121 115 111 93 71 45 50 34 34 37 21 13 5 2 1 0 0 0 0 0 0 0 0 0 0 0 0 0 0 14 80 161 187 198 202 203 204 204 204 204 204 204 204 204 204 202 192 178 160 129 73 48 61 66 71 75 70 70 73 71 64 71 89 116 135 161 164 169 163 156 131 99 63 69 100 112 103 105 117 123 125 127 127 126 125 115 108 96 82 87 104 116 121 119 118 98 82 76 31 16 11 8 4 2 1 0 0 0 0 0 0 0 0 0 0 0 0 0 0 0 37 131 175 193 200 203 204 204 204 204 204 204 204 204 204 204 204 203 200 190 175 127 67 63 67 71 70 70 70 67 73 81 105 146 169 184 190 194 195 195 187 176 157 118 85 90 108 110 95 93 106 118 123 126 127 127 126 121 111 107 95 80 90 105 118 122 115 117 90 64 27 12 7 4 2 0 0 0 0 0 0 0 0 0 0 0 0 0 0 0 9 71 157 186 197 202 203 204 204 204 204 204 204 204 204 204 204 204 204 204 202 200 150 89 69 69 70 71 70 66 67 79 125 167 183 192 197 200 201 202 202 201 199 189 166 131 94 105 115 110 90 78 95 111 121 125 127 127 127 126 120 109 102 87 83 97 108 117 118 114 97 66 40 24 10 4 1 0 0 0 0 0 0 0 0 0 0 0 0 0 0 24 108 169 192 200 203 204 204 204 204 204 204 204 204 204 204 204 204 204 204 204 204 169 108 74 71 73 74 67 64 76 129 173 188 196 200 202 203 203 204 204 204 203 202 194 166 126 109 123 117 106 96 74 82 108 120 124 126 127 127 127 123 114 109 107 87 84 96 111 121 115 99 86 68 29 10 4 1 0 0 0 0 0 0 0 0 0 0 0 0 0 42 129 178 195 201 203 204 204 204 204 204 204 204 204 204 204 204 204 204 204 204 204 185 133 81 74 74 76 65 71 122 172 189 197 201 203 203 204 204 204 204 204 204 204 203 190 167 137 120 125 121 110 99 76 80 102 116 122 125 127 127 127 126 125 115 108 97 89 93 105 109 109 111 95 65 25 9 3 1 0 0 0 0 0 0 0 0 0 0 0 9 67 148 185 197 202 203 204 204 204 204 204 204 204 204 204 204 204 204 204 204 204 204 198 156 97 75 74 69 66 100 166 187 197 201 203 204 204 204 204 204 204 204 204 204 204 203 190 172 139 124 124 124 111 103 88 76 89 109 121 124 126 127 128 128 127 120 114 110 108 97 94 99 100 98 81 57 24 9 3 0 0 0 0 0 0 0 0 0 0 0 21 100 166 190 199 202 204 204 204 204 204 204 204 204 204 204 204 204 204 204 204 204 204 204 177 122 73 72 68 81 139 180 195 200 203 204 204 204 204 204 204 204 204 204 204 204 204 203 190 174 138 117 120 123 116 107 98 77 80 102 116 123 126 127 128 128 127 126 123 117 113 112 101 96 91 87 82 57 23 10 0 0 0 0 0 0 0 0 0 0 0 36 117 174 193 200 203 204 204 204 204 204 204 204 204 204 204 204 204 204 204 204 204 204 204 195 147 83 73 69 102 167 189 198 202 203 204 204 204 204 204 204 204 204 204 204 204 204 204 203 190 173 134 108 118 123 122 111 103 89 76 91 112 123 126 128 128 128 128 127 126 125 120 116 112 107 108 100 89 68 35 0 0 0 0 0 0 0 0 0 0 0 44 130 179 195 201 203 204 204 204 204 204 204 204 204 204 204 204 204 204 204 204 204 204 204 203 169 118 74 74 118 174 193 200 203 204 204 204 204 204 204 204 204 204 204 204 204 204 204 204 203 190 169 132 107 118 124 124 117 107 98 85 99 118 125 127 128 128 128 128 128 128 127 126 123 122 119 120 114 100 69 0 0 0 0 0 0 0 0 0 0 0 54 143 183 197 202 203 204 204 204 204 204 204 204 204 204 204 204 204 204 204 204 204 204 204 204 191 152 93 77 125 177 195 201 203 204 204 204 204 204 204 204 204 204 204 204 204 204 204 204 204 203 190 168 132 106 117 124 125 122 111 112 115 114 125 127 128 128 128 128 128 127 127 127 127 127 126 126 126 113 58 0 0 0 0 0 0 0 0 0 0 0 58 149 184 197 202 203 204 204 204 204 204 204 204 204 204 204 204 204 204 204 204 204 204 204 204 203 176 127 85 124 177 195 201 203 204 204 204 204 204 204 204 204 204 204 204 204 204 204 204 204 204 203 190 168 131 103 116 124 126 125 124 120 125 126 128 128 128 128 126 121 122 121 121 124 125 125 126 127 106 55 0 0 0 0 0 0 0 0 0 0 0 57 141 184 197 202 203 204 204 204 204 204 204 204 204 204 204 204 204 204 204 204 204 204 204 204 204 194 164 114 119 173 193 200 203 204 204 204 204 204 204 204 204 204 204 204 204 204 204 204 204 204 204 203 190 167 132 106 118 124 126 127 127 127 128 128 128 128 128 125 113 108 107 94 100 107 114 118 112 85 42 0 0 0 0 0 0 0 0 0 0 0 57 144 184 198 202 203 204 204 204 204 204 204 204 204 204 204 204 204 204 204 204 204 204 204 204 204 203 188 158 130 158 188 198 202 203 204 204 204 204 204 204 204 204 204 204 204 204 204 204 204 204 204 204 203 190 169 137 107 118 125 127 128 128 128 128 128 128 128 125 117 111 102 88 78 76 91 96 77 45 18 0 0 0 0 0 0 0 0 0 0 0 57 150 185 198 202 203 204 204 204 204 204 204 204 204 204 204 204 204 204 204 204 204 204 204 204 204 204 202 182 164 135 170 190 198 202 203 204 204 204 204 204 204 204 204 204 204 204 204 204 204 204 204 204 204 203 192 169 133 108 119 125 127 128 128 128 128 128 128 128 122 121 114 107 99 82 66 66 30 16 8 0 0 0 0 0 0 0 0 0 0 0 62 147 186 198 202 203 204 204 204 204 204 204 204 204 204 204 204 204 204 204 204 204 204 204 204 204 204 204 202 170 132 118 168 191 199 202 203 204 204 204 204 204 204 204 204 204 204 204 204 204 204 204 204 204 204 203 190 168 131 109 120 125 127 128 128 128 128 128 128 128 127 126 123 117 98 73 27 14 6 3 0 0 0 0 0 0 0 0 0 0 0 61 154 186 198 202 203 204 204 204 204 204 204 204 204 204 204 204 204 204 204 204 204 204 204 204 204 204 204 204 173 108 89 128 174 193 200 203 204 204 204 204 204 204 204 204 204 204 204 204 204 204 204 204 204 204 204 203 190 167 126 106 117 124 127 128 128 128 128 128 128 128 127 127 126 115 70 24 8 3 1 0 0 0 0 0 0 0 0 0 0 0 61 148 185 198 202 203 204 204 204 204 204 204 204 204 204 204 204 204 204 204 204 204 204 204 204 204 204 204 204 159 86 91 123 145 181 196 201 203 204 204 204 204 204 204 204 204 204 204 204 204 204 204 204 204 204 204 204 203 188 164 115 102 120 125 127 128 128 128 128 128 123 122 124 125 116 75 23 7 2 0 0 0 0 0 0 0 0 0 0 0 0 54 138 182 197 202 203 204 204 204 204 204 204 204 204 204 204 204 204 204 204 204 204 204 204 204 204 204 204 197 137 81 112 127 142 160 187 198 202 203 204 204 204 204 204 204 204 204 204 204 204 204 204 204 204 204 204 204 204 202 185 152 105 112 123 126 127 128 128 124 123 112 96 107 115 112 66 22 7 2 0 0 0 0 0 0 0 0 0 0 0 0 46 127 179 196 202 203 204 204 204 204 204 204 204 204 204 204 204 204 204 204 204 204 204 204 204 204 204 204 187 115 94 127 135 141 153 168 189 198 202 203 204 204 204 204 204 204 204 204 204 204 204 204 204 204 204 204 204 204 204 202 174 136 104 118 124 127 128 128 119 105 94 78 87 107 104 64 21 6 2 0 0 0 0 0 0 0 0 0 0 0 0 38 117 176 195 201 203 204 204 204 204 204 204 204 203 201 201 201 201 202 203 204 204 204 204 204 204 204 204 175 114 110 133 140 143 147 156 168 188 198 201 203 204 204 204 204 204 204 204 204 204 204 204 204 204 204 204 204 204 204 204 194 162 118 106 122 126 128 128 118 102 75 71 89 108 101 59 19 6 1 0 0 0 0 0 0 0 0 0 0 0 0 34 111 172 193 200 203 204 204 204 204 204 199 188 178 173 172 179 189 196 199 201 203 204 204 204 204 204 204 165 116 126 137 142 144 145 148 155 163 181 192 199 202 203 204 204 204 204 204 204 204 204 204 204 204 204 204 204 204 204 204 203 183 137 103 120 125 125 123 120 110 92 87 98 111 95 48 17 5 1 0 0 0 0 0 0 0 0 0 0 0 0 23 93 159 188 199 202 204 204 204 204 196 180 161 152 151 150 153 160 166 183 195 200 203 204 204 204 204 204 159 114 133 140 143 144 145 145 146 152 155 169 187 197 200 202 203 204 204 204 204 204 204 204 204 204 204 204 204 204 204 204 204 198 155 113 115 124 124 120 115 108 108 106 110 116 97 49 16 5 1 0 0 0 0 0 0 0 0 0 0 0 0 12 58 135 183 197 202 203 204 199 187 177 162 155 161 169 172 173 159 137 144 177 194 200 203 204 204 204 204 154 116 131 141 144 145 145 145 145 144 148 154 157 175 188 197 201 203 204 204 204 204 204 204 204 204 204 204 204 204 204 204 204 204 169 125 113 123 124 125 119 103 103 103 101 115 98 53 16 5 1 0 0 0 0 0 0 0 0 0 0 0 0 1 41 118 176 194 201 203 196 178 165 161 173 184 190 193 194 190 180 163 133 141 180 195 201 203 204 204 204 154 114 135 141 144 145 145 145 145 145 145 145 148 135 150 179 194 199 202 203 204 204 204 204 204 204 204 204 204 204 204 204 204 204 180 132 112 123 126 127 113 107 103 94 103 108 89 45 14 4 1 0 0 0 0 0 0 0 0 0 0 0 0 0 24 95 163 190 199 195 176 154 156 185 194 198 200 201 202 202 198 183 159 129 154 189 199 203 204 204 202 152 118 136 142 144 145 145 145 145 145 145 145 140 134 119 139 171 187 196 199 201 203 203 204 204 204 204 204 204 204 204 204 204 204 186 139 110 122 126 123 109 89 90 98 109 111 77 27 10 3 1 0 0 0 0 0 0 0 0 0 0 0 0 0 11 60 140 183 190 173 150 156 188 195 200 202 203 203 204 204 203 201 177 141 137 182 197 202 204 204 202 150 117 136 142 144 145 145 145 145 145 145 145 145 133 131 130 136 150 165 181 194 198 201 203 203 204 204 204 204 204 204 204 204 204 191 136 106 118 124 121 103 99 92 95 111 109 64 22 7 2 0 0 0 0 0 0 0 0 0 0 0 0 0 0 1 34 108 168 165 144 152 187 195 200 202 203 204 204 204 204 204 204 194 157 137 171 194 201 203 204 202 153 114 134 142 144 145 145 145 145 145 145 145 145 144 137 136 137 128 120 132 158 178 193 198 200 202 203 204 204 204 204 204 204 204 189 134 88 101 113 117 116 112 109 113 119 108 60 19 6 2 0 0 0 0 0 0 0 0 0 0 0 0 0 0 0 14 67 136 138 141 184 194 200 202 203 204 204 204 204 204 204 204 203 171 146 161 191 200 203 204 204 154 117 132 141 144 145 145 145 145 145 145 145 145 145 144 143 138 132 124 116 116 131 158 173 187 196 199 202 203 204 204 204 204 204 181 124 101 91 89 103 106 106 104 104 105 90 52 15 5 1 0 0 0 0 0 0 0 0 0 0 0 0 0 0 0 1 50 100 126 178 191 199 202 203 204 204 204 204 204 204 204 204 204 187 157 156 189 199 203 204 204 156 116 132 140 143 145 145 145 145 145 145 145 145 145 145 145 144 141 133 129 127 123 118 128 143 166 185 196 199 201 202 202 202 195 158 118 123 112 100 97 97 86 84 87 86 65 25 10 3 1 0 0 0 0 0 0 0 0 0 0 0 0 0 0 0 0 38 99 154 186 197 201 203 204 204 204 204 204 204 204 204 204 204 198 167 156 189 199 203 204 204 160 117 123 138 143 144 145 145 145 145 145 145 145 145 145 145 145 145 144 142 136 130 130 122 117 127 148 168 176 183 186 189 185 165 126 120 135 126 117 117 114 98 89 96 79 44 15 6 2 0 0 0 0 0 0 0 0 0 0 0 0 0 0 0 0 10 59 127 177 193 200 203 204 204 204 204 204 204 204 204 204 204 204 204 168 159 189 199 203 204 204 166 118 116 136 142 144 145 145 145 145 145 145 145 145 145 145 145 145 145 145 144 143 138 130 131 133 131 134 140 143 142 143 147 127 113 133 140 138 123 112 101 96 101 103 74 24 10 3 1 0 0 0 0 0 0 0 0 0 0 0 0 0 0 0 0 25 101 165 187 198 202 203 204 204 204 204 204 204 204 204 204 204 204 204 171 158 189 199 203 204 204 178 125 110 134 142 144 145 145 145 145 145 145 145 145 145 145 145 145 145 145 145 145 144 143 140 130 121 120 126 125 112 113 114 120 135 139 141 138 132 115 98 92 95 82 52 17 6 2 0 0 0 0 0 0 0 0 0 0 0 0 0 0 0 0 9 59 138 180 195 200 203 204 204 204 204 204 204 204 204 204 204 204 204 204 169 160 189 199 203 204 204 190 142 110 134 141 144 145 145 145 145 145 145 145 145 145 145 145 145 145 145 145 145 145 145 143 134 119 103 105 109 116 123 128 136 136 129 129 136 134 128 119 117 107 73 27 11 4 1 0 0 0 0 0 0 0 0 0 0 0 0 0 0 0 0 24 101 166 189 198 202 203 204 204 204 204 204 204 204 204 204 204 204 204 204 171 158 189 199 203 204 204 201 151 113 132 140 144 145 145 145 145 145 145 145 145 145 145 145 145 145 145 145 145 145 145 143 138 130 121 105 97 102 113 122 131 134 113 97 116 126 124 115 108 102 64 22 7 2 0 0 0 0 0 0 0 0 0 0 0 0 0 0 0 0 9 55 134 178 195 201 203 204 204 204 204 204 204 204 204 204 204 204 204 204 202 168 160 189 199 203 204 204 204 163 123 126 139 143 145 145 145 145 145 145 145 145 145 145 145 145 145 145 145 145 145 145 145 144 138 126 123 117 102 101 107 116 121 110 94 105 118 118 103 90 74 61 16 5 1 0 0 0 0 0 0 0 0 0 0 0 0 0 0 0 0 20 93 158 187 198 202 203 204 204 204 204 204 204 204 204 204 204 204 204 204 195 162 161 190 200 203 204 204 204 180 140 123 138 143 144 145 145 145 145 145 145 145 145 145 145 145 145 145 145 145 145 145 145 145 141 124 115 111 116 121 124 118 121 113 112 118 127 125 100 70 73 22 11 3 1 0 0 0 0 0 0 0 0 0 0 0 0 0 0 0 9 49 118 175 193 200 203 204 204 204 204 204 204 204 204 204 204 204 204 204 204 185 151 167 192 200 203 204 204 204 195 159 121 134 141 144 145 145 145 145 145 145 145 145 145 145 145 145 145 145 145 145 145 145 145 141 132 107 97 110 128 130 122 113 118 128 130 132 119 74 42 20 12 4 2 0 0 0 0 0 0 0 0 0 0 0 0 0 0 0 0 20 86 151 184 197 201 203 204 204 204 204 204 204 204 204 204 204 204 204 204 204 175 149 176 195 201 203 204 204 204 203 175 142 127 138 143 144 145 145 145 145 145 145 145 145 145 145 145 145 145 145 145 145 145 145 145 135 125 115 110 123 135 124 96 96 125 134 122 84 30 16 8 4 2 0 0 0 0 0 0 0 0 0 0 0 0 0 0 0 0 9 46 113 172 191 199 202 203 204 204 204 204 204 204 204 204 204 204 204 204 204 204 168 149 185 197 201 203 204 204 204 204 192 173 145 134 140 143 144 145 145 145 145 145 145 145 145 145 145 145 145 145 145 145 145 145 145 144 138 129 129 134 134 128 110 108 121 120 87 32 16 6 3 1 0 0 0 0 0 0 0 0 0 0 0 0 0 0 0 0 0 18 81 143 182 196 201 203 204 204 204 204 204 204 204 204 204 204 204 204 204 204 197 157 148 184 195 200 202 203 204 204 204 203 190 177 151 131 134 140 142 144 145 145 145 145 145 145 145 145 145 145 145 145 145 145 145 145 135 123 118 122 128 134 135 129 125 114 84 32 16 7 3 1 0 0 0 0 0 0 0 0 0 0 0 0 0 0 0 0 0 15 48 102 169 190 199 202 203 204 204 204 204 204 204 204 204 204 204 204 204 204 204 185 132 131 160 178 191 198 200 200 201 201 201 200 190 175 136 105 124 136 142 144 145 145 145 145 145 145 145 145 145 145 145 145 144 143 143 133 110 106 108 125 130 131 129 113 76 30 16 7 3 1 0 0 0 0 0 0 0 0 0 0 0 0 0 0 0 0 0 0 21 85 136 180 195 201 203 204 204 204 204 204 204 204 204 204 204 204 204 204 204 200 173 113 90 110 141 160 168 169 173 177 180 180 174 165 154 134 109 103 122 136 142 144 145 145 145 145 145 145 145 145 145 145 136 124 129 140 132 130 124 128 133 127 122 105 75 32 18 9 4 1 0 0 0 0 0 0 0 0 0 0 0 0 0 0 0 0 0 0 0 32 90 166 188 198 202 203 204 204 204 204 204 204 204 204 204 204 204 204 204 204 190 142 91 43 55 92 95 101 97 103 110 113 116 108 99 109 120 133 136 124 130 138 142 144 144 145 145 145 145 145 145 143 142 134 107 110 137 142 142 138 130 114 95 86 99 57 47 29 13 5 2 0 0 0 0 0 0 0 0 0 0 0 0 0 0 0 0 0 0 9 46 121 175 194 200 203 204 204 204 204 204 204 204 204 204 204 204 204 204 204 204 178 113 42 20 28 28 34 33 34 37 39 42 41 36 37 60 105 139 153 161 151 144 138 139 144 145 145 145 145 145 145 135 131 132 123 124 138 140 134 125 114 87 56 79 103 111 98 75 33 11 3 1 0 0 0 0 0 0 0 0 0 0 0 0 0 0 0 0 0 18 83 149 184 197 202 203 204 204 204 204 204 204 204 204 204 204 204 204 204 204 193 147 75 27 10 6 6 6 7 7 7 8 9 9 8 13 26 49 95 129 154 169 171 157 141 143 143 145 145 144 144 145 134 123 140 135 138 129 118 115 114 104 93 84 115 150 166 160 111 64 19 7 2 0 0 0 0 0 0 0 0 0 0 0 0 0 0 0 0 15 48 105 170 191 199 202 204 204 204 204 204 204 204 204 204 204 204 204 204 204 200 180 109 41 16 6 2 1 1 1 1 1 1 1 1 1 2 4 17 41 91 113 148 168 173 174 157 147 142 137 138 140 142 133 138 134 126 118 112 106 119 131 141 124 135 170 185 192 185 153 87 44 15 4 1 0 0 0 0 0 0 0 0 0 0 0 0 0 0 0 26 86 133 179 195 201 203 204 204 204 204 204 204 204 204 204 204 204 204 204 204 187 137 80 26 9 3 1 0 0 0 0 0 0 0 0 0 0 0 2 16 37 79 83 126 166 178 180 177 157 136 123 121 121 119 121 113 93 99 111 138 166 172 154 148 181 190 197 200 201 168 119 80 21 6 1 0 0 0 0 0 0 0 0 0 0 0 0 0 0 0 36 94 156 187 198 202 203 204 204 204 204 204 204 204 204 204 204 204 204 204 194 152 90 34 15 5 2 0 0 0 0 0 0 0 0 0 0 0 0 0 1 20 18 37 75 114 161 185 186 182 169 140 125 114 113 123 104 88 117 163 182 191 181 158 177 192 199 201 203 203 185 151 76 25 7 2 0 0 0 0 0 0 0 0 0 0 0 0 0 0 0 37 112 173 192 200 203 204 204 204 204 204 204 204 204 204 204 204 204 204 197 164 94 38 18 7 3 1 0 0 0 0 0 0 0 0 0 0 0 0 0 0 2 4 11 31 79 106 161 187 194 185 177 168 151 151 158 134 128 173 187 195 195 175 169 190 198 201 203 204 204 198 160 78 26 8 2 0 0 0 0 0 0 0 0 0 0 0 0 0 0 10 60 140 181 196 201 203 204 204 204 204 204 204 204 204 204 204 204 204 199 182 119 45 20 8 3 1 0 0 0 0 0 0 0 0 0 0 0 0 0 0 0 0 0 1 13 29 85 108 163 189 196 197 192 187 191 182 157 173 189 197 201 191 165 172 194 200 203 204 204 204 204 163 84 27 8 2 0 0 0 0 0 0 0 0 0 0 0 0 0 0 20 97 164 189 199 202 203 204 204 204 204 204 204 204 204 204 204 204 199 181 138 78 27 10 4 1 0 0 0 0 0 0 0 0 0 0 0 0 0 0 0 0 0 0 0 1 16 30 89 117 169 191 198 200 200 201 191 185 194 198 201 203 182 160 179 196 201 203 204 204 204 202 165 86 28 9 2 0 0 0 0 0 0 0 0 0 0 0 0 0 0 37 117 175 194 200 203 204 204 204 204 204 204 204 204 204 204 204 204 186 139 88 34 15 5 2 0 0 0 0 0 0 0 0 0 0 0 0 0 0 0 0 0 0 0 0 0 1 17 33 92 127 173 192 199 202 203 200 200 201 202 203 202 173 158 188 198 202 203 204 204 204 198 164 91 28 8 2 0 0 0 0 0 0 0 0 0 0 0 0 0 0 51 143 183 197 202 203 204 204 204 204 204 204 204 204 204 204 204 192 170 110 42 19 7 3 1 0 0 0 0 0 0 0 0 0 0 0 0 0 0 0 0 0 0 0 0 0 0 1 17 34 86 133 177 194 200 203 203 203 203 204 204 195 160 158 189 199 202 204 204 204 204 191 144 82 24 7 2 0 0 0 0 0 0 0 0 0 0 0 0 0 18 86 165 189 199 202 204 204 204 204 204 204 204 204 204 204 204 192 154 110 89 26 10 4 1 0 0 0 0 0 0 0 0 0 0 0 0 0 0 0 0 0 0 0 0 0 0 0 0 1 14 34 86 145 182 196 201 203 204 204 204 204 184 146 160 191 200 203 204 204 204 204 180 120 43 18 6 1 0 0 0 0 0 0 0 0 0 0 0 0 0 40 140 178 195 201 203 204 204 204 204 204 204 204 204 204 204 192 154 86 60 27 15 5 2 0 0 0 0 0 0 0 0 0 0 0 0 0 0 0 0 0 0 0 0 0 0 0 0 0 0 1 11 38 95 155 186 197 201 203 204 204 204 172 141 173 193 201 203 204 204 204 197 169 93 33 11 4 1 0 0 0 0 0 0 0 0 0 0 0 0 22 90 159 188 198 202 203 204 204 204 204 204 204 204 204 204 192 154 87 36 20 11 5 2 1 0 0 0 0 0 0 0 0 0 0 0 0 0 0 0 0 0 0 0 0 0 0 0 0 0 0 0 1 14 43 101 162 188 198 202 203 204 197 159 147 185 197 202 203 204 204 204 182 128 78 23 8 2 0 0 0 0 0 0 0 0 0 0 0 0 0 44 146 178 194 200 203 204 204 204 204 204 204 204 204 204 191 154 89 39 18 8 4 2 1 0 0 0 0 0 0 0 0 0 0 0 0 0 0 0 0 0 0 0 0 0 0 0 0 0 0 0 0 0 1 15 47 110 168 190 199 202 203 186 147 162 190 199 202 204 204 204 192 145 84 33 15 5 1 0 0 0 0 0 0 0 0 0 0 0 0 0 69 158 188 198 202 203 204 204 204 204 204 204 204 204 188 157 111 60 27 11 5 4 2 1 0 0 0 0 0 0 0 0 0 0 0 0 0 0 0 0 0 0 0 0 0 0 0 0 0 0 0 0 0 0 1 17 52 121 172 191 199 195 166 147 180 194 201 203 204 204 194 170 101 40 18 7 3 1 0 0 0 0 0 0 0 0 0 0 0 0 22 97 170 192 200 203 204 204 204 204 204 204 204 204 192 160 110 100 86 35 22 25 19 8 5 4 1 0 0 0 0 0 0 0 0 0 0 0 0 0 0 0 0 0 0 0 0 0 0 0 0 0 0 0 0 0 1 21 56 124 170 190 176 139 155 187 198 202 203 204 196 172 120 72 24 9 3 1 0 0 0 0 0 0 0 0 0 0 0 0 0 43 147 179 195 201 203 204 204 204 204 204 204 202 189 171 136 133 139 115 93 75 71 58 48 40 14 4 1 0 0 0 0 0 0 0 0 0 0 0 0 0 0 0 0 0 0 0 0 0 0 0 0 0 0 0 0 0 2 24 54 119 169 152 123 167 190 199 202 203 195 177 127 81 30 14 5 1 0 0 0 0 0 0 0 0 0 0 0 0 0 0 65 153 187 198 202 203 204 204 204 204 204 199 186 173 154 165 176 176 170 161 155 141 105 98 92 22 6 1 0 0 0 0 0 0 0 0 0 0 0 0 0 0 0 0 0 0 0 0 0 0 0 0 0 0 0 0 0 0 2 21 53 114 115 111 161 185 195 194 183 171 132 85 32 15 6 2 0 0 0 0 0 0 0 0 0 0 0 0 0 0 0 80 166 191 200 203 204 204 204 204 202 195 184 170 163 186 193 196 198 197 196 190 180 165 154 81 28 8 2 0 0 0 0 0 0 0 0 0 0 0 0 0 0 0 0 0 0 0 0 0 0 0 0 0 0 0 0 0 0 0 2 21 48 64 77 108 150 164 162 135 103 87 32 16 6 3 1 0 0 0 0 0 0 0 0 0 0 0 0 0 0 0 137 175 194 201 203 204 204 204 199 187 177 169 170 192 196 200 202 202 203 203 202 200 193 167 93 30 9 2 0 0 0 0 0 0 0 0 0 0 0 0 0 0 0 0 0 0 0 0 0 0 0 0 0 0 0 0 0 0 0 0 2 16 22 36 72 103 98 91 72 48 25 15 6 3 1 0 0 0 0 0 0 0 0 0 0 0 0 0 0 0 255 146 185 197 202 203 204 204 204 199 180 168 178 194 198 201 203 203 204 204 204 204 204 203 173 98 30 9 2 0 0 0 0 0 0 0 0 0 0 0 0 0 0 0 0 0 0 0 0 0 0 0 0 0 0 0 0 0 0 0 0 0 1 8 6 41 79 38 34 20 14 9 5 2 1 0 0 0 0 0 0 0 0 0 0 0 0 0 0 0 0 0 169 188 198 202 203 204 204 204 199 191 192 196 200 202 203 204 204 204 204 204 204 204 199 166 87 27 8 2 0 0 0 0 0 0 0 0 0 0 0 0 0 0 0 0 0 0 0 0 0 0 0 0 0 0 0 0 0 0 0 0 0 0 0 1 27 14 13 8 6 4 2 1 0 0 0 0 0 0 0 0 0 0 0 0 0 0 0 0 0 0 111 156 188 198 202 203 204 204 204 204 202 201 202 203 203 204 204 204 204 204 204 203 195 174 126 63 20 6 2 0 0 0 0 0 0 0 0 0 0 0 0 0 0 0 0 0 0 0 0 0 0 0 0 0 0 0 0 0 0 0 0 0 0 0 0 2 4 3 2 1 1 0 0 0 0 0 0 0 0 0 0 0 0 0 0 0 0 0 0 0 0 94 139 181 195 200 202 203 204 204 204 204 204 204 204 204 204 204 204 204 203 197 185 167 124 72 28 12 4 1 0 0 0 0 0 0 0 0 0 0 0 0 0 0 0 0 0 0 0 0 0 0 0 0 0 0 0 0 0 0 0 0 0 0 0 0 0 0 0 0 0 0 0 0 0 0 0 0 0 0 0 0 0 0 0 0 0 0 0 0 0 0 0 97 158 181 194 198 199 200 201 202 203 203 203 203 203 203 202 201 194 181 173 142 100 70 28 14 5 2 0 0 0 0 0 0 0 0 0 0 0 0 0 0 0 0 0 0 0 0 0 0 0 0 0 0 0 0 0 0 0 0 0 0 0 0 0 0 0 0 0 0 0 0 0 0 0 0 0 0 0 0 0 0 0 0 0 0 0 0 0 0 0 0 44 97 135 163 165 166 173 183 190 195 196 196 196 191 185 178 172 167 136 106 85 45 23 12 5 2 0 0 0 0 0 0 0 0 0 0 0 0 0 0 0 0 0 0 0 0 0 0 0 0 0 0 0 0 0 0 0 0 0 0 0 0 0 0 0 0 0 0 0 0 0 0 0 0 0 0 0 0 0 0 0 0 0 0 0 0 0 0 0 0 0 18 32 62 96 91 106 124 150 148 153 151 151 151 149 148 133 112 92 79 46 23 15 8 4 2 0 0 0 0 0 0 0 0 0 0 0 0 0 0 0 0 0 0 0 0 0 0 0 0 0 0 0 0 0 0 0 0 0 0 0 0 0 0 0 0 0 0 0 0 0 0 0 0 0 0 0 0 0 0 0 0 0 0 0 0 0 0 0 0 0 0 0 0 0 0 0 0 153 102 94 51 68 51 68 51 102 153 0 0 0 0 0 0 0 0 0 0 0 0 0 0 0 0 0 0 0 0 0 0 0 0 0 0 0 0 0 0 0 0 0 0 0 0 0 0 0 0 0 0 0 0 0 0 0 0 0 0 0 0 0 0 0 0 0 0 0 0 0 0 0 0 0 0 0 0 0 0 0 0 0 0 