P2
# by hand
20 10
8
0 0 0 0 0 0 0 0 0 0 7 7 7 7 7 7 7 7 7 7
0 0 0 0 0 0 0 0 0 0 7 7 7 7 7 7 7 7 7 7
0 0 0 0 0 0 0 0 0 0 7 7 7 7 7 7 7 7 7 7
0 0 0 0 0 0 0 0 0 0 7 7 7 7 7 7 7 7 7 7
0 0 0 0 0 0 0 0 0 0 7 7 7 7 7 7 7 7 7 7
7 7 7 7 7 7 7 7 7 7 0 0 0 0 0 0 0 0 0 0
7 7 7 7 7 7 7 7 7 7 0 0 0 0 0 0 0 0 0 0
7 7 7 7 7 7 7 7 7 7 0 0 0 0 0 0 0 0 0 0
7 7 7 7 7 7 7 7 7 7 0 0 0 0 0 0 0 0 0 0
7 7 7 7 7 7 7 7 7 7 0 0 0 0 0 0 0 0 0 0
